<svg width="33" height="33" viewBox="0 0 33 33" fill="none" xmlns="http://www.w3.org/2000/svg">
<g filter="url(#filter0_i_901_4479)">
<g clip-path="url(#clip0_901_4479)">
<rect width="31.68" height="31.68" transform="translate(0.93457 0.43042)" fill="#358888"/>
<path d="M22.6695 7.72607C23.6243 7.72607 24.54 8.10315 25.2151 8.77435C25.8902 9.44555 26.2695 10.3559 26.2695 11.3051V18.4632C26.2695 19.4124 25.8902 20.3227 25.2151 20.9939C24.54 21.6651 23.6243 22.0422 22.6695 22.0422H18.4179L14.1321 24.5985C14.0031 24.6755 13.8566 24.7191 13.7062 24.7253C13.5558 24.7315 13.4063 24.7001 13.2712 24.6339C13.1362 24.5678 13.02 24.469 12.9333 24.3467C12.8466 24.2244 12.7922 24.0824 12.7749 23.9337L12.7695 23.8317V22.0422H11.8695C10.9459 22.0422 10.0576 21.6893 9.3884 21.0564C8.71918 20.4236 8.32021 19.5592 8.27403 18.6421L8.26953 18.4632V11.3051C8.26953 10.3559 8.64882 9.44555 9.32395 8.77435C9.99908 8.10315 10.9148 7.72607 11.8695 7.72607H22.6695ZM20.1495 16.0348C19.9791 15.8687 19.7493 15.7767 19.5106 15.7791C19.272 15.7814 19.044 15.8779 18.8769 16.0473C18.6674 16.26 18.4173 16.4289 18.1413 16.5442C17.8653 16.6596 17.5689 16.719 17.2695 16.719C16.9701 16.719 16.6737 16.6596 16.3977 16.5442C16.1217 16.4289 15.8716 16.26 15.6621 16.0473C15.4942 15.8818 15.2675 15.7887 15.031 15.788C14.7945 15.7874 14.5673 15.8793 14.3985 16.0439C14.2296 16.2084 14.1327 16.4325 14.1287 16.6675C14.1246 16.9026 14.2138 17.1298 14.3769 17.3C14.754 17.6825 15.2041 17.9864 15.7008 18.1939C16.1975 18.4014 16.7308 18.5082 17.2695 18.5082C17.8083 18.5082 18.3416 18.4014 18.8383 18.1939C19.335 17.9864 19.7851 17.6825 20.1621 17.3C20.3292 17.1305 20.4217 16.9021 20.4194 16.6648C20.417 16.4275 20.3199 16.2009 20.1495 16.0348ZM15.0285 12.1999H15.0195C14.7808 12.1999 14.5519 12.2941 14.3831 12.4619C14.2144 12.6297 14.1195 12.8573 14.1195 13.0946C14.1195 13.3319 14.2144 13.5595 14.3831 13.7273C14.5519 13.8951 14.7808 13.9894 15.0195 13.9894H15.0285C15.2672 13.9894 15.4961 13.8951 15.6649 13.7273C15.8337 13.5595 15.9285 13.3319 15.9285 13.0946C15.9285 12.8573 15.8337 12.6297 15.6649 12.4619C15.4961 12.2941 15.2672 12.1999 15.0285 12.1999ZM19.5285 12.1999H19.5195C19.2808 12.1999 19.0519 12.2941 18.8831 12.4619C18.7144 12.6297 18.6195 12.8573 18.6195 13.0946C18.6195 13.3319 18.7144 13.5595 18.8831 13.7273C19.0519 13.8951 19.2808 13.9894 19.5195 13.9894H19.5285C19.7672 13.9894 19.9961 13.8951 20.1649 13.7273C20.3337 13.5595 20.4285 13.3319 20.4285 13.0946C20.4285 12.8573 20.3337 12.6297 20.1649 12.4619C19.9961 12.2941 19.7672 12.1999 19.5285 12.1999Z" fill="white"/>
</g>
<path d="M1.42957 16.2704C1.42957 7.79561 8.29976 0.92542 16.7746 0.92542C25.2494 0.92542 32.1196 7.79561 32.1196 16.2704C32.1196 24.7452 25.2494 31.6154 16.7746 31.6154C8.29976 31.6154 1.42957 24.7452 1.42957 16.2704Z" stroke="#358888" stroke-width="0.99"/>
</g>
<defs>
<filter id="filter0_i_901_4479" x="0.93457" y="-1.54958" width="31.6797" height="33.6599" filterUnits="userSpaceOnUse" color-interpolation-filters="sRGB">
<feFlood flood-opacity="0" result="BackgroundImageFix"/>
<feBlend mode="normal" in="SourceGraphic" in2="BackgroundImageFix" result="shape"/>
<feColorMatrix in="SourceAlpha" type="matrix" values="0 0 0 0 0 0 0 0 0 0 0 0 0 0 0 0 0 0 127 0" result="hardAlpha"/>
<feOffset dy="-1.98"/>
<feGaussianBlur stdDeviation="1.98"/>
<feComposite in2="hardAlpha" operator="arithmetic" k2="-1" k3="1"/>
<feColorMatrix type="matrix" values="0 0 0 0 0.137255 0 0 0 0 0.533333 0 0 0 0 1 0 0 0 0.08 0"/>
<feBlend mode="normal" in2="shape" result="effect1_innerShadow_901_4479"/>
</filter>
<clipPath id="clip0_901_4479">
<path d="M0.93457 16.2704C0.93457 7.52223 8.02638 0.43042 16.7746 0.43042C25.5228 0.43042 32.6146 7.52223 32.6146 16.2704C32.6146 25.0186 25.5228 32.1104 16.7746 32.1104C8.02638 32.1104 0.93457 25.0186 0.93457 16.2704Z" fill="white"/>
</clipPath>
</defs>
</svg>
