<?xml version="1.0" encoding="UTF-8"?>
<svg xmlns="http://www.w3.org/2000/svg" xmlns:xlink="http://www.w3.org/1999/xlink" width="50px" height="50px" viewBox="0 0 50 50" version="1.1">
<g id="surface1">
<path style=" stroke:none;fill-rule:nonzero;fill:rgb(3.529412%,14.117648%,29.411766%);fill-opacity:1;" d="M 25 5.207031 C 26.625 5.207031 27.960938 6.449219 28.109375 8.03125 L 28.125 8.332031 L 28.125 41.667969 C 28.125 43.390625 26.726562 44.792969 25 44.792969 C 23.375 44.792969 22.039062 43.550781 21.890625 41.96875 L 21.875 41.667969 L 21.875 8.332031 C 21.875 6.609375 23.273438 5.207031 25 5.207031 Z M 16.667969 11.457031 C 18.390625 11.457031 19.792969 12.859375 19.792969 14.582031 L 19.792969 35.417969 C 19.792969 37.140625 18.390625 38.542969 16.667969 38.542969 C 14.941406 38.542969 13.542969 37.140625 13.542969 35.417969 L 13.542969 14.582031 C 13.542969 12.859375 14.941406 11.457031 16.667969 11.457031 Z M 33.332031 11.457031 C 35.058594 11.457031 36.457031 12.859375 36.457031 14.582031 L 36.457031 35.417969 C 36.457031 37.140625 35.058594 38.542969 33.332031 38.542969 C 31.609375 38.542969 30.207031 37.140625 30.207031 35.417969 L 30.207031 14.582031 C 30.207031 12.859375 31.609375 11.457031 33.332031 11.457031 Z M 8.332031 17.707031 C 10.058594 17.707031 11.457031 19.109375 11.457031 20.832031 L 11.457031 29.167969 C 11.457031 30.890625 10.058594 32.292969 8.332031 32.292969 C 6.609375 32.292969 5.207031 30.890625 5.207031 29.167969 L 5.207031 20.832031 C 5.207031 19.109375 6.609375 17.707031 8.332031 17.707031 Z M 41.667969 17.707031 C 43.289062 17.707031 44.625 18.949219 44.777344 20.53125 L 44.792969 20.832031 L 44.792969 29.167969 C 44.792969 30.890625 43.390625 32.292969 41.667969 32.292969 C 40.042969 32.292969 38.707031 31.050781 38.554688 29.46875 L 38.542969 29.167969 L 38.542969 20.832031 C 38.542969 19.109375 39.941406 17.707031 41.667969 17.707031 Z M 41.667969 17.707031 "/>
</g>
</svg>
